<svg xmlns="http://www.w3.org/2000/svg">
    <symbol viewBox="0 0 16 14" id="hart">
        <path fill-rule="evenodd" clip-rule="evenodd" d="M14.6774 1.29938C12.9141 -0.432673 10.0445 -0.432673 8.2809 1.29938C8.18313 1.39542 8.08955 1.49658 8.00013 1.60253C7.91072 1.49624 7.81713 1.39542 7.71901 1.29904C5.95577 -0.433014 3.08615 -0.433014 1.32256 1.29904C-0.441028 3.0311 -0.44068 5.84997 1.32256 7.58237L7.75381 13.8999C7.82165 13.9665 7.91072 14 7.99978 14C8.08885 14 8.17792 13.9665 8.24576 13.8999L14.677 7.58237C16.4409 5.85031 16.4409 3.03144 14.6774 1.29938Z" fill="#FF523D"/>
    </symbol>
    <symbol viewBox="0 0 17 16" id="star">
        <path fill-rule="evenodd" clip-rule="evenodd" d="M16.3833 5.8322L11.0555 5.05813L8.67381 0.230426C8.60601 0.115117 8.48223 0.0443115 8.34847 0.0443115C8.2147 0.0443115 8.09093 0.115117 8.02313 0.230426L5.6403 5.05704L0.311069 5.8322C0.174365 5.85193 0.0607138 5.94756 0.0178921 6.07887C-0.0249296 6.21018 0.010503 6.35442 0.109295 6.45095L3.9655 10.2092L3.05534 15.5155C3.03212 15.6516 3.08806 15.789 3.19969 15.8702C3.31132 15.9513 3.45932 15.9621 3.58155 15.898L8.3472 13.3929L13.1128 15.897C13.2351 15.961 13.3831 15.9502 13.4947 15.8691C13.6063 15.7879 13.6623 15.6505 13.6391 15.5145L12.7289 10.2092L16.5851 6.45095C16.6839 6.35447 16.7193 6.2103 16.6766 6.07901C16.6339 5.94771 16.5203 5.85205 16.3837 5.8322H16.3833Z" fill="#F5A623"/>
    </symbol>
    <symbol>
        <path viewBox="0 0 17 20" id="apple" d="M13.9601 10.1909C13.9383 7.77013 15.9422 6.59244 16.0338 6.53761C14.899 4.88298 13.14 4.65691 12.5219 4.63888C11.0445 4.48341 9.61144 5.5229 8.85886 5.5229C8.09126 5.5229 6.93234 4.6539 5.6833 4.67944C4.07599 4.70423 2.5724 5.63481 1.74765 7.07988C0.0457749 10.0264 1.31503 14.3563 2.94569 16.738C3.76129 17.9052 4.71447 19.2068 5.96195 19.161C7.18245 19.1114 7.63836 18.3836 9.11122 18.3836C10.5705 18.3836 10.9987 19.161 12.2709 19.1317C13.5809 19.1114 14.4055 17.96 15.1927 16.7831C16.1353 15.4469 16.5138 14.1295 16.5289 14.0619C16.4988 14.0514 13.9857 13.0915 13.9601 10.1909ZM11.5567 3.07213C12.213 2.25121 12.6623 1.13435 12.5376 0.000976562C11.5874 0.0430369 10.3993 0.65817 9.71496 1.46107C9.10959 2.16859 8.56882 3.32825 8.70852 4.41882C9.77586 4.49843 10.8717 3.88029 11.5567 3.07213Z" fill="white"/>    
    </symbol>
    <symbol> 
        <path viewBox="0 0 56 6" id="text1" d="M4.94417 5.42034H4.10515L3.64624 3.97752H2.0502L1.61232 5.42034H0.795898L2.37767 0.507545H3.35407L4.94417 5.42034ZM3.50804 3.37216L3.09269 2.08931C3.04913 1.95788 2.96877 1.65219 2.84484 1.16399H2.82982C2.77875 1.37504 2.70589 1.68148 2.59623 2.08931L2.1884 3.37216H3.50804ZM8.89928 1.87826L7.55785 5.42034H6.79244L5.49464 1.87826H6.34035L6.94572 3.75145C7.04787 4.06465 7.135 4.36358 7.20034 4.64749H7.22212C7.28077 4.39287 7.36783 4.09394 7.47673 3.75145L8.07459 1.87826H8.89928ZM11.7549 5.42034L11.6963 5.01245H11.6744C11.4341 5.34067 11.0841 5.50065 10.6395 5.50065C10.0056 5.50065 9.5534 5.05601 9.5534 4.45815C9.5534 3.5839 10.3112 3.13175 11.6234 3.13175V3.0664C11.6234 2.59998 11.3755 2.3664 10.8873 2.3664C10.5373 2.3664 10.2309 2.45428 9.96199 2.62928L9.80195 2.11178C10.1302 1.90749 10.5381 1.80534 11.0194 1.80534C11.9448 1.80534 12.4119 2.29355 12.4119 3.2707V4.57532C12.4119 4.93283 12.427 5.20998 12.463 5.42103L11.7549 5.42034ZM11.6452 3.65606C10.7703 3.65606 10.3331 3.86787 10.3331 4.37034C10.3331 4.74212 10.5592 4.92388 10.8724 4.92388C11.2734 4.92388 11.6452 4.61819 11.6452 4.20285V3.65606ZM14.1651 1.29467C13.903 1.29467 13.6987 1.09038 13.6987 0.820744C13.6987 0.551107 13.9098 0.354325 14.1801 0.354325C14.4497 0.354325 14.6683 0.551107 14.6609 0.820744C14.6609 1.1054 14.4573 1.29467 14.1651 1.29467ZM14.5737 5.42034H13.7865V1.87826H14.5737V5.42034ZM16.7593 5.42034H15.9722V0.25293H16.7593V5.42034ZM20.1046 5.42034L20.046 5.01245H20.0242C19.7839 5.34067 19.4339 5.50065 18.9893 5.50065C18.3553 5.50065 17.9032 5.05601 17.9032 4.45815C17.9032 3.5839 18.661 3.13175 19.9731 3.13175V3.0664C19.9731 2.59998 19.7253 2.3664 19.237 2.3664C18.887 2.3664 18.5806 2.45428 18.3117 2.62928L18.1511 2.11103C18.4793 1.90674 18.8871 1.80459 19.3686 1.80459C20.2939 1.80459 20.761 2.29279 20.761 3.26995V4.57457C20.761 4.93208 20.7768 5.20923 20.8114 5.42028H20.1046V5.42034ZM19.995 3.65606C19.1199 3.65606 18.6828 3.86787 18.6828 4.37034C18.6828 4.74212 18.9088 4.92388 19.222 4.92388C19.6231 4.92388 19.995 4.61819 19.995 4.20285V3.65606ZM23.9502 5.50071C23.4477 5.50071 23.0766 5.28891 22.8363 4.87356H22.8205L22.7754 5.42034H22.1047C22.1265 5.13644 22.134 4.81498 22.134 4.46572V0.25293H22.9219V2.39651H22.9369C23.1704 2.00294 23.5484 1.80616 24.0665 1.80616C24.9198 1.80616 25.5176 2.53545 25.5176 3.59898C25.5176 4.69856 24.8537 5.50071 23.9502 5.50071ZM23.7901 2.4243C23.3372 2.4243 22.9227 2.81786 22.9227 3.36464V3.98428C22.9227 4.47248 23.2952 4.87356 23.7767 4.87356C24.3663 4.87356 24.717 4.39287 24.717 3.62752C24.7162 2.91325 24.3512 2.4243 23.7901 2.4243ZM27.4682 5.42034H26.6819V0.25293H27.4682V5.42034ZM31.7531 3.83857H29.3902C29.406 4.50929 29.8491 4.88783 30.5055 4.88783C30.8555 4.88783 31.1762 4.82925 31.4602 4.72034L31.5826 5.26712C31.2476 5.41283 30.854 5.48569 30.3951 5.48569C29.2865 5.48569 28.6308 4.78568 28.6308 3.70038C28.6308 2.61432 29.3024 1.7979 30.3065 1.7979C31.2101 1.7979 31.7794 2.46861 31.7794 3.48181C31.7824 3.62001 31.7756 3.74394 31.7531 3.83857ZM31.0313 3.27752C31.0313 2.73073 30.7541 2.34468 30.2509 2.34468C29.7987 2.34468 29.4428 2.73825 29.3902 3.27752H31.0313ZM36.5239 5.50071C35.4889 5.50071 34.8182 4.72785 34.8182 3.67859C34.8182 2.58503 35.5032 1.80541 36.5833 1.80541C37.6024 1.80541 38.2889 2.54146 38.2889 3.62076C38.289 4.72785 37.5814 5.50071 36.5239 5.50071ZM36.554 2.38073C35.9854 2.38073 35.6212 2.9125 35.6212 3.65606C35.6212 4.38536 35.993 4.91712 36.5465 4.91712C37.1001 4.91712 37.471 4.34856 37.471 3.64104C37.4718 2.92001 37.1075 2.38073 36.554 2.38073ZM42.5205 5.42034H41.7342V3.38643C41.7342 2.76003 41.4938 2.44608 41.0199 2.44608C40.5535 2.44608 40.2321 2.84715 40.2321 3.31357V5.42034H39.4457V2.89071C39.4457 2.57752 39.4374 2.24178 39.4164 1.87751H40.1089L40.1457 2.4243H40.1675C40.3777 2.04575 40.8089 1.80466 41.2896 1.80466C42.0324 1.80466 42.5206 2.37322 42.5206 3.29855V5.42034H42.5205ZM47.6707 2.46861H46.8047V4.18858C46.8047 4.62646 46.9572 4.84502 47.2628 4.84502C47.4018 4.84502 47.5189 4.83 47.6128 4.80822L47.6347 5.40607C47.4814 5.46472 47.2764 5.49395 47.0232 5.49395C46.4028 5.49395 46.0326 5.15146 46.0326 4.25467V2.46861H45.5158V1.87826H46.0326V1.22933L46.8047 0.995745V1.87751H47.6707V2.46861ZM51.8392 5.42034H51.0513V3.40145C51.0513 2.76754 50.8109 2.44683 50.3371 2.44683C49.9292 2.44683 49.5507 2.72398 49.5507 3.28503V5.42034H48.7628V0.25293H49.5507V2.38073H49.5657C49.8136 1.99468 50.1711 1.80466 50.63 1.80466C51.3803 1.80466 51.8392 2.38749 51.8392 3.31357V5.42034ZM55.8612 3.83857H53.4991C53.5141 4.50929 53.9572 4.88783 54.6138 4.88783C54.9645 4.88783 55.2844 4.82925 55.5684 4.72034L55.6916 5.26712C55.3565 5.41283 54.9623 5.48569 54.5033 5.48569C53.3948 5.48569 52.7391 4.78568 52.7391 3.70038C52.7391 2.61432 53.4106 1.7979 54.4147 1.7979C55.3183 1.7979 55.8876 2.46861 55.8876 3.48181C55.8905 3.62001 55.8829 3.74394 55.8612 3.83857ZM55.1394 3.27752C55.1394 2.73073 54.863 2.34468 54.3598 2.34468C53.9069 2.34468 53.5509 2.73825 53.499 3.27752H55.1394Z" fill="white"/>
    </symbol>
    <symbol>
        <path  viewBox="0 0 61 14" id="text2" d="M8.63806 10.9938H6.93237L5.99803 8.0578H2.75031L1.86028 10.9938H0.199707L3.41808 0.998423H5.40543L8.63806 10.9938ZM5.71644 6.82604L4.87147 4.21604C4.7821 3.94941 4.61385 3.32151 4.36744 2.33309H4.33746C4.23831 2.7582 4.07984 3.3861 3.86278 4.21604L3.03209 6.82604H5.71644ZM16.8985 7.30147C16.8985 8.52723 16.5658 9.49612 15.8995 10.2075C15.3032 10.8405 14.5619 11.1568 13.6778 11.1568C12.7232 11.1568 12.0367 10.8165 11.6198 10.1346V13.9163H10.0185V6.15532C10.0185 5.38541 9.99833 4.59609 9.95927 3.78642H11.3675L11.4569 4.92881H11.4869C12.0209 4.06808 12.8313 3.63765 13.9189 3.63765C14.7691 3.63765 15.4789 3.97338 16.0467 4.64559C16.6138 5.31937 16.8985 6.20414 16.8985 7.30147ZM15.2671 7.36005C15.2671 6.65855 15.1094 6.08022 14.7924 5.62431C14.4461 5.15038 13.9812 4.9131 13.3984 4.9131C13.0033 4.9131 12.6443 5.04523 12.3236 5.30585C12.0021 5.56873 11.7918 5.91197 11.6935 6.33709C11.6439 6.53537 11.6192 6.69685 11.6192 6.8246V8.02701C11.6192 8.55051 11.7799 8.99296 12.1013 9.35498C12.4228 9.7155 12.8404 9.89644 13.3541 9.89644C13.9573 9.89644 14.4267 9.66292 14.7624 9.19944C15.0988 8.73453 15.2671 8.12165 15.2671 7.36005ZM25.1881 7.30147C25.1881 8.52723 24.8553 9.49612 24.1891 10.2075C23.592 10.8405 22.8515 11.1568 21.9667 11.1568C21.0121 11.1568 20.3256 10.8165 19.9087 10.1346V13.9163H18.3074V6.15532C18.3074 5.38541 18.2872 4.59609 18.2481 3.78642H19.6564L19.7458 4.92881H19.7758C20.3091 4.06808 21.1195 3.63765 22.2077 3.63765C23.0572 3.63765 23.767 3.97338 24.3363 4.64559C24.9027 5.31937 25.1881 6.20414 25.1881 7.30147ZM23.556 7.36005C23.556 6.65855 23.3976 6.08022 23.0805 5.62431C22.7343 5.15038 22.2709 4.9131 21.688 4.9131C21.293 4.9131 20.934 5.04523 20.6117 5.30585C20.2903 5.56873 20.0808 5.91197 19.9823 6.33709C19.9335 6.53537 19.9072 6.69685 19.9072 6.8246V8.02701C19.9072 8.55051 20.0687 8.99296 20.3887 9.35498C20.7101 9.71474 21.1277 9.89644 21.643 9.89644C22.2468 9.89644 22.7162 9.66292 23.0513 9.19944C23.3877 8.73453 23.556 8.12165 23.556 7.36005ZM34.4564 8.18999C34.4564 9.04097 34.1589 9.73271 33.5679 10.2667C32.9174 10.8496 32.0094 11.1417 30.8452 11.1417C29.7696 11.1417 28.9074 10.9344 28.257 10.5191L28.6273 9.18442C29.3295 9.60052 30.1009 9.80782 30.9406 9.80782C31.5444 9.80782 32.0139 9.67112 32.3488 9.39998C32.6845 9.12809 32.8543 8.76457 32.8543 8.31092C32.8543 7.90465 32.7139 7.56435 32.4382 7.28726C32.1611 7.01086 31.7029 6.75324 31.0593 6.51665C29.3092 5.86397 28.4335 4.90935 28.4335 3.65355C28.4335 2.83337 28.7429 2.1619 29.3604 1.6369C29.9777 1.11265 30.7964 0.850586 31.8149 0.850586C32.7244 0.850586 33.4823 1.00906 34.0839 1.32527L33.6821 2.63058C33.1158 2.32414 32.4765 2.17092 31.7615 2.17092C31.1968 2.17092 30.7536 2.30987 30.4366 2.58626C30.17 2.83337 30.0348 3.13461 30.0348 3.49206C30.0348 3.88644 30.1888 4.21391 30.4952 4.47078C30.7611 4.70731 31.2463 4.96499 31.9478 5.24139C32.8085 5.58838 33.4408 5.99247 33.8457 6.45663C34.2536 6.92067 34.4564 7.49975 34.4564 8.18999ZM39.7643 4.98815H37.9992V8.48742C37.9992 9.37745 38.3102 9.82134 38.9336 9.82134C39.2197 9.82134 39.4571 9.79724 39.6449 9.74698L39.6891 10.963C39.3737 11.081 38.9583 11.1402 38.4438 11.1402C37.8114 11.1402 37.3172 10.9472 36.9605 10.5611C36.6052 10.1751 36.4265 9.52841 36.4265 8.61811V4.98514H35.3749V3.78342H36.4265V2.46378L37.9992 1.98909V3.78342H39.7643V4.98815ZM47.7121 7.33076C47.7121 8.43854 47.3952 9.34809 46.7628 10.0594C46.1011 10.7917 45.2208 11.1568 44.1235 11.1568C43.0645 11.1568 42.2225 10.806 41.5946 10.1052C40.9667 9.40292 40.6528 8.51821 40.6528 7.45093C40.6528 6.33402 40.9772 5.41927 41.6239 4.708C42.2721 3.99597 43.1449 3.64003 44.2422 3.64003C45.2997 3.64003 46.1492 3.99147 46.7921 4.69298C47.4065 5.37345 47.7121 6.25221 47.7121 7.33076ZM46.0523 7.36756C46.0523 6.7073 45.9096 6.14099 45.6234 5.66706C45.2877 5.09474 44.807 4.80864 44.1843 4.80864C43.5429 4.80864 43.051 5.09474 42.716 5.66706C42.4291 6.14099 42.2863 6.71707 42.2863 7.39754C42.2863 8.05856 42.4291 8.62631 42.716 9.0988C43.0622 9.67112 43.5452 9.95728 44.1708 9.95728C44.7829 9.95728 45.2629 9.66511 45.6099 9.08453C45.9044 8.59933 46.0523 8.02926 46.0523 7.36756ZM52.9194 5.19469C52.7609 5.16534 52.5912 5.15032 52.4147 5.15032C51.8514 5.15032 51.4158 5.36219 51.1094 5.78873C50.8435 6.16427 50.7098 6.63896 50.7098 7.21203V10.9937H49.1085V6.05618C49.1085 5.22624 49.0927 4.46915 49.0619 3.78717H50.4567L50.5153 5.16609H50.5596C50.7293 4.69222 50.9952 4.30986 51.3602 4.0237C51.717 3.76615 52.1022 3.63765 52.5177 3.63765C52.6656 3.63765 52.7993 3.64816 52.918 3.667L52.9194 5.19469ZM60.0809 7.04911C60.0809 7.33602 60.0621 7.5778 60.0223 7.7754H55.2184C55.2364 8.48742 55.4693 9.0327 55.9154 9.40824C56.3203 9.74329 56.8437 9.91146 57.4867 9.91146C58.1979 9.91146 58.8468 9.7988 59.4304 9.57123L59.6813 10.6821C58.9993 10.9795 58.1942 11.1275 57.2651 11.1275C56.1476 11.1275 55.2702 10.7984 54.6318 10.142C53.9949 9.48485 53.6758 8.60158 53.6758 7.49525C53.6758 6.40913 53.9724 5.50414 54.5665 4.78235C55.1884 4.01175 56.0288 3.62638 57.0864 3.62638C58.1251 3.62638 58.9115 4.01169 59.4455 4.78235C59.8683 5.39298 60.0809 6.15006 60.0809 7.04911ZM58.5539 6.63376C58.5652 6.15833 58.4601 5.74899 58.243 5.40274C57.9658 4.9566 57.5392 4.73428 56.9677 4.73428C56.4442 4.73428 56.0176 4.95134 55.6931 5.38697C55.4265 5.73322 55.268 6.14932 55.2192 6.63226L58.5539 6.63376Z" fill="white"/>
    </symbol>
</svg>