<svg width="61" height="14" viewBox="0 0 61 14" fill="none" xmlns="http://www.w3.org/2000/svg">
<path d="M8.63806 10.9938H6.93237L5.99803 8.0578H2.75031L1.86028 10.9938H0.199707L3.41808 0.998423H5.40543L8.63806 10.9938ZM5.71644 6.82604L4.87147 4.21604C4.7821 3.94941 4.61385 3.32151 4.36744 2.33309H4.33746C4.23831 2.7582 4.07984 3.3861 3.86278 4.21604L3.03209 6.82604H5.71644ZM16.8985 7.30147C16.8985 8.52723 16.5658 9.49612 15.8995 10.2075C15.3032 10.8405 14.5619 11.1568 13.6778 11.1568C12.7232 11.1568 12.0367 10.8165 11.6198 10.1346V13.9163H10.0185V6.15532C10.0185 5.38541 9.99833 4.59609 9.95927 3.78642H11.3675L11.4569 4.92881H11.4869C12.0209 4.06808 12.8313 3.63765 13.9189 3.63765C14.7691 3.63765 15.4789 3.97338 16.0467 4.64559C16.6138 5.31937 16.8985 6.20414 16.8985 7.30147ZM15.2671 7.36005C15.2671 6.65855 15.1094 6.08022 14.7924 5.62431C14.4461 5.15038 13.9812 4.9131 13.3984 4.9131C13.0033 4.9131 12.6443 5.04523 12.3236 5.30585C12.0021 5.56873 11.7918 5.91197 11.6935 6.33709C11.6439 6.53537 11.6192 6.69685 11.6192 6.8246V8.02701C11.6192 8.55051 11.7799 8.99296 12.1013 9.35498C12.4228 9.7155 12.8404 9.89644 13.3541 9.89644C13.9573 9.89644 14.4267 9.66292 14.7624 9.19944C15.0988 8.73453 15.2671 8.12165 15.2671 7.36005ZM25.1881 7.30147C25.1881 8.52723 24.8553 9.49612 24.1891 10.2075C23.592 10.8405 22.8515 11.1568 21.9667 11.1568C21.0121 11.1568 20.3256 10.8165 19.9087 10.1346V13.9163H18.3074V6.15532C18.3074 5.38541 18.2872 4.59609 18.2481 3.78642H19.6564L19.7458 4.92881H19.7758C20.3091 4.06808 21.1195 3.63765 22.2077 3.63765C23.0572 3.63765 23.767 3.97338 24.3363 4.64559C24.9027 5.31937 25.1881 6.20414 25.1881 7.30147ZM23.556 7.36005C23.556 6.65855 23.3976 6.08022 23.0805 5.62431C22.7343 5.15038 22.2709 4.9131 21.688 4.9131C21.293 4.9131 20.934 5.04523 20.6117 5.30585C20.2903 5.56873 20.0808 5.91197 19.9823 6.33709C19.9335 6.53537 19.9072 6.69685 19.9072 6.8246V8.02701C19.9072 8.55051 20.0687 8.99296 20.3887 9.35498C20.7101 9.71474 21.1277 9.89644 21.643 9.89644C22.2468 9.89644 22.7162 9.66292 23.0513 9.19944C23.3877 8.73453 23.556 8.12165 23.556 7.36005ZM34.4564 8.18999C34.4564 9.04097 34.1589 9.73271 33.5679 10.2667C32.9174 10.8496 32.0094 11.1417 30.8452 11.1417C29.7696 11.1417 28.9074 10.9344 28.257 10.5191L28.6273 9.18442C29.3295 9.60052 30.1009 9.80782 30.9406 9.80782C31.5444 9.80782 32.0139 9.67112 32.3488 9.39998C32.6845 9.12809 32.8543 8.76457 32.8543 8.31092C32.8543 7.90465 32.7139 7.56435 32.4382 7.28726C32.1611 7.01086 31.7029 6.75324 31.0593 6.51665C29.3092 5.86397 28.4335 4.90935 28.4335 3.65355C28.4335 2.83337 28.7429 2.1619 29.3604 1.6369C29.9777 1.11265 30.7964 0.850586 31.8149 0.850586C32.7244 0.850586 33.4823 1.00906 34.0839 1.32527L33.6821 2.63058C33.1158 2.32414 32.4765 2.17092 31.7615 2.17092C31.1968 2.17092 30.7536 2.30987 30.4366 2.58626C30.17 2.83337 30.0348 3.13461 30.0348 3.49206C30.0348 3.88644 30.1888 4.21391 30.4952 4.47078C30.7611 4.70731 31.2463 4.96499 31.9478 5.24139C32.8085 5.58838 33.4408 5.99247 33.8457 6.45663C34.2536 6.92067 34.4564 7.49975 34.4564 8.18999ZM39.7643 4.98815H37.9992V8.48742C37.9992 9.37745 38.3102 9.82134 38.9336 9.82134C39.2197 9.82134 39.4571 9.79724 39.6449 9.74698L39.6891 10.963C39.3737 11.081 38.9583 11.1402 38.4438 11.1402C37.8114 11.1402 37.3172 10.9472 36.9605 10.5611C36.6052 10.1751 36.4265 9.52841 36.4265 8.61811V4.98514H35.3749V3.78342H36.4265V2.46378L37.9992 1.98909V3.78342H39.7643V4.98815ZM47.7121 7.33076C47.7121 8.43854 47.3952 9.34809 46.7628 10.0594C46.1011 10.7917 45.2208 11.1568 44.1235 11.1568C43.0645 11.1568 42.2225 10.806 41.5946 10.1052C40.9667 9.40292 40.6528 8.51821 40.6528 7.45093C40.6528 6.33402 40.9772 5.41927 41.6239 4.708C42.2721 3.99597 43.1449 3.64003 44.2422 3.64003C45.2997 3.64003 46.1492 3.99147 46.7921 4.69298C47.4065 5.37345 47.7121 6.25221 47.7121 7.33076ZM46.0523 7.36756C46.0523 6.7073 45.9096 6.14099 45.6234 5.66706C45.2877 5.09474 44.807 4.80864 44.1843 4.80864C43.5429 4.80864 43.051 5.09474 42.716 5.66706C42.4291 6.14099 42.2863 6.71707 42.2863 7.39754C42.2863 8.05856 42.4291 8.62631 42.716 9.0988C43.0622 9.67112 43.5452 9.95728 44.1708 9.95728C44.7829 9.95728 45.2629 9.66511 45.6099 9.08453C45.9044 8.59933 46.0523 8.02926 46.0523 7.36756ZM52.9194 5.19469C52.7609 5.16534 52.5912 5.15032 52.4147 5.15032C51.8514 5.15032 51.4158 5.36219 51.1094 5.78873C50.8435 6.16427 50.7098 6.63896 50.7098 7.21203V10.9937H49.1085V6.05618C49.1085 5.22624 49.0927 4.46915 49.0619 3.78717H50.4567L50.5153 5.16609H50.5596C50.7293 4.69222 50.9952 4.30986 51.3602 4.0237C51.717 3.76615 52.1022 3.63765 52.5177 3.63765C52.6656 3.63765 52.7993 3.64816 52.918 3.667L52.9194 5.19469ZM60.0809 7.04911C60.0809 7.33602 60.0621 7.5778 60.0223 7.7754H55.2184C55.2364 8.48742 55.4693 9.0327 55.9154 9.40824C56.3203 9.74329 56.8437 9.91146 57.4867 9.91146C58.1979 9.91146 58.8468 9.7988 59.4304 9.57123L59.6813 10.6821C58.9993 10.9795 58.1942 11.1275 57.2651 11.1275C56.1476 11.1275 55.2702 10.7984 54.6318 10.142C53.9949 9.48485 53.6758 8.60158 53.6758 7.49525C53.6758 6.40913 53.9724 5.50414 54.5665 4.78235C55.1884 4.01175 56.0288 3.62638 57.0864 3.62638C58.1251 3.62638 58.9115 4.01169 59.4455 4.78235C59.8683 5.39298 60.0809 6.15006 60.0809 7.04911ZM58.5539 6.63376C58.5652 6.15833 58.4601 5.74899 58.243 5.40274C57.9658 4.9566 57.5392 4.73428 56.9677 4.73428C56.4442 4.73428 56.0176 4.95134 55.6931 5.38697C55.4265 5.73322 55.268 6.14932 55.2192 6.63226L58.5539 6.63376Z" fill="white"/>
</svg>
